<?xml version="1.0" standalone="no"?>
<!DOCTYPE svg PUBLIC "-//W3C//DTD SVG 20010904//EN"
 "http://www.w3.org/TR/2001/REC-SVG-20010904/DTD/svg10.dtd">
<svg version="1.0" xmlns="http://www.w3.org/2000/svg"
 width="1920.000000pt" height="1920.000000pt" viewBox="0 0 1920.000000 1920.000000"
 preserveAspectRatio="xMidYMid meet">

<g transform="translate(0.000000,1920.000000) scale(0.100000,-0.100000)"
fill="#000000" stroke="none">
<path d="M5505 15725 c-155 -29 -253 -70 -390 -160 -325 -216 -496 -614 -430
-1001 18 -102 47 -197 83 -269 69 -141 124 -203 574 -652 437 -435 444 -442
501 -458 68 -20 130 -14 192 17 22 11 131 110 248 226 l207 207 1522 -1522
1522 -1522 -31 -33 c-17 -18 -36 -43 -42 -56 -17 -33 -15 -115 3 -154 9 -19
81 -98 159 -175 124 -124 148 -143 189 -153 l47 -12 32 -82 c48 -124 363 -922
429 -1086 32 -80 88 -224 125 -320 104 -269 108 -270 272 -107 l114 112 -52
145 c-28 80 -79 228 -114 330 -35 102 -90 263 -123 358 -34 94 -59 172 -56
172 2 0 137 -166 299 -370 162 -203 298 -370 302 -370 15 0 546 538 540 546
-3 5 -84 72 -180 149 -96 77 -174 141 -172 143 2 2 38 -16 82 -41 43 -24 139
-76 214 -115 l135 -72 202 203 c143 144 202 210 202 226 0 33 -16 57 -47 69
-15 6 -352 139 -748 295 -396 156 -763 301 -817 322 l-96 38 -12 46 c-10 40
-31 65 -153 189 -78 79 -153 149 -167 157 -71 37 -148 25 -211 -32 l-40 -37
-1522 1522 -1522 1522 207 207 c232 234 252 263 253 363 0 120 -4 125 -482
600 -429 426 -486 476 -622 545 -67 34 -115 51 -211 76 -102 27 -307 34 -415
14z"/>
<path d="M11765 14092 c-24 -147 -101 -451 -136 -542 -56 -146 -177 -268 -327
-331 -88 -36 -330 -99 -502 -129 -69 -12 -132 -24 -140 -27 -8 -3 71 -22 175
-43 238 -48 418 -100 515 -147 97 -47 201 -149 252 -248 53 -102 144 -451 174
-667 8 -60 19 -54 28 14 27 203 109 524 163 637 51 107 159 214 273 270 94 46
391 126 583 157 59 9 104 20 100 24 -4 4 -55 15 -113 24 -58 9 -161 31 -230
47 -292 69 -396 115 -500 219 -82 82 -129 170 -174 328 -35 121 -106 449 -106
489 0 12 -4 24 -8 27 -5 3 -17 -43 -27 -102z"/>
<path d="M13987 14100 c-3 -14 -13 -61 -23 -105 -30 -146 -51 -200 -99 -253
-55 -61 -103 -82 -268 -118 -71 -16 -125 -29 -120 -31 4 -1 62 -14 128 -29
158 -34 206 -56 260 -116 48 -53 69 -107 99 -253 10 -44 20 -91 23 -105 3 -17
13 12 29 92 33 163 57 222 114 279 39 39 62 52 127 72 44 14 117 33 163 41 46
9 85 18 87 20 2 2 -27 9 -64 16 -109 20 -230 58 -273 85 -81 51 -111 114 -155
320 -16 76 -25 102 -28 85z"/>
<path d="M10305 12525 c-273 -42 -562 -168 -770 -334 -76 -61 -227 -216 -287
-295 l-59 -79 88 -89 c48 -48 91 -87 94 -86 4 2 35 41 69 88 197 269 492 456
840 536 114 26 734 32 891 9 114 -16 259 -58 358 -101 29 -13 56 -24 58 -24 7
0 -2 46 -38 182 l-31 117 -62 20 c-76 25 -137 39 -251 57 -119 18 -782 18
-900 -1z"/>
<path d="M13666 12142 c-9 -70 -61 -278 -86 -344 -12 -32 -41 -79 -65 -105
-75 -84 -157 -118 -415 -173 -74 -16 -131 -29 -127 -29 39 -4 232 -48 317 -72
206 -59 270 -130 329 -362 16 -62 34 -145 41 -184 7 -40 16 -73 20 -73 4 0 13
33 19 73 23 128 71 299 98 350 58 105 132 157 289 201 73 20 268 64 301 67 4
0 -53 13 -127 29 -153 32 -251 60 -304 85 -58 28 -133 101 -161 159 -27 55
-89 286 -101 375 -4 28 -10 51 -14 51 -4 0 -10 -22 -14 -48z"/>
<path d="M11987 12167 c-2 -7 -15 -70 -27 -140 l-22 -127 44 -48 c134 -145
239 -323 303 -515 68 -206 65 -129 65 -1796 0 -1625 1 -1582 -54 -1782 -28
-105 -61 -189 -113 -294 -19 -38 -37 -71 -38 -73 -2 -2 -59 24 -126 57 -703
345 -1821 345 -2517 0 -64 -32 -120 -55 -125 -52 -16 10 -95 185 -126 280 -81
249 -81 242 -81 1688 l0 1280 -125 125 -125 125 0 -334 0 -333 -68 -72 c-285
-299 -483 -675 -567 -1081 -45 -219 -45 -180 -45 -2926 l0 -2596 23 -34 c30
-45 63 -61 116 -56 32 4 52 13 75 36 l31 31 6 2653 c5 2395 7 2661 22 2743 59
331 185 635 356 859 l46 60 5 -950 c6 -1032 4 -986 65 -1210 127 -468 438
-867 867 -1111 520 -297 1165 -319 1706 -59 523 251 896 731 1011 1300 35 174
41 340 41 1199 l0 829 34 -44 c193 -254 339 -627 375 -961 8 -66 11 -937 11
-2683 0 -2228 2 -2590 14 -2620 35 -82 141 -99 203 -31 l33 36 0 2630 c0 2327
-2 2642 -16 2742 -66 481 -263 894 -597 1251 l-55 58 -5 427 c-4 374 -7 441
-25 542 -51 280 -163 527 -344 751 -69 87 -222 239 -239 239 -4 0 -9 -6 -12
-13z m-847 -4732 c164 -20 336 -55 487 -101 121 -36 310 -116 346 -144 l21
-18 -48 -56 c-201 -235 -526 -422 -866 -499 -81 -18 -127 -21 -315 -21 -191
-1 -233 2 -321 22 -315 69 -585 214 -804 433 -61 61 -109 116 -107 123 2 6 41
30 88 53 230 114 561 196 907 223 144 12 447 4 612 -15z"/>
</g>
</svg>
