<?xml version="1.0" standalone="no"?>
<!DOCTYPE svg PUBLIC "-//W3C//DTD SVG 20010904//EN"
 "http://www.w3.org/TR/2001/REC-SVG-20010904/DTD/svg10.dtd">
<svg version="1.0" xmlns="http://www.w3.org/2000/svg"
 width="1920.000000pt" height="1920.000000pt" viewBox="0 0 1920.000000 1920.000000"
 preserveAspectRatio="xMidYMid meet">

<g transform="translate(0.000000,1920.000000) scale(0.100000,-0.100000)"
fill="#000000" stroke="none">
<path d="M9767 15247 c-35 -112 -128 -217 -236 -268 l-65 -31 51 -27 c119 -65
197 -159 235 -284 l21 -70 22 61 c46 127 129 222 242 274 l65 31 -63 33 c-35
19 -78 49 -97 66 -51 49 -111 145 -130 210 -9 32 -20 58 -23 58 -3 0 -13 -24
-22 -53z"/>
<path d="M7990 15027 c0 -33 -63 -214 -105 -302 -143 -297 -383 -515 -684
-620 -58 -21 -63 -25 -42 -31 63 -19 244 -117 318 -173 226 -171 388 -434 459
-746 l18 -80 8 40 c5 22 20 76 35 120 124 378 402 670 747 786 63 21 67 24 45
32 -95 38 -238 115 -305 165 -231 172 -408 452 -468 742 -14 70 -26 100 -26
67z"/>
<path d="M5790 13270 c-233 -40 -461 -234 -599 -508 -143 -285 -193 -665 -128
-974 15 -69 45 -183 68 -252 l41 -125 -45 -118 c-118 -309 -167 -572 -167
-888 0 -593 204 -1187 625 -1825 376 -569 846 -1127 1535 -1824 640 -646 1198
-1162 2190 -2021 434 -376 719 -624 815 -710 163 -146 161 -145 208 -145 46 0
64 10 91 50 19 29 20 59 5 94 -13 27 -197 192 -779 696 -833 722 -1388 1218
-1745 1559 -381 365 -922 911 -1125 1136 -210 233 -368 416 -522 605 -230 283
-522 696 -655 930 -384 669 -517 1304 -398 1895 25 125 74 295 85 295 3 0 21
-30 39 -67 218 -443 684 -1045 1129 -1456 601 -556 1161 -889 1692 -1007 577
-128 1275 -44 1965 235 290 117 364 166 414 268 27 56 38 155 23 210 -6 20 -8
37 -6 37 8 0 411 -290 644 -463 339 -252 699 -534 944 -741 66 -56 134 -112
152 -126 17 -14 143 -118 280 -231 575 -475 1450 -1170 1521 -1207 29 -16 68
-15 102 2 47 25 67 99 36 143 -8 11 -135 114 -282 229 -458 355 -840 663
-1437 1158 -544 451 -792 647 -1196 948 -239 178 -672 487 -880 628 -178 121
-187 129 -336 310 -368 446 -1117 1214 -1639 1680 -685 612 -1431 1143 -2005
1430 -272 136 -474 182 -660 150z m215 -210 c102 -16 194 -51 370 -140 569
-287 1306 -817 1975 -1419 555 -500 1311 -1284 1669 -1731 159 -199 331 -467
331 -518 0 -56 -27 -82 -143 -137 -465 -219 -1037 -355 -1494 -355 -513 1
-945 145 -1468 493 -914 608 -1772 1716 -1965 2537 -49 212 -46 405 10 625 53
209 129 354 248 477 141 146 285 198 467 168z"/>
<path d="M5630 11818 c0 -59 29 -215 56 -300 147 -467 599 -970 1199 -1333
129 -78 398 -215 422 -215 31 0 3 26 -144 136 -592 441 -940 789 -1229 1229
-88 134 -199 333 -244 438 -36 82 -60 100 -60 45z"/>
<path d="M9940 13238 c0 -37 -64 -172 -114 -242 -25 -35 -69 -85 -98 -111 -51
-44 -195 -125 -224 -125 -30 0 -9 -17 69 -54 116 -56 217 -158 279 -283 26
-50 52 -117 59 -147 7 -31 15 -56 19 -56 4 0 11 17 15 37 18 96 115 256 202
333 53 46 155 106 208 123 19 6 35 13 34 16 0 3 -37 24 -82 45 -155 74 -299
257 -338 430 -12 56 -29 75 -29 34z"/>
</g>
</svg>
